<svg width="30" height="35" viewBox="0 0 30 35" fill="none" xmlns="http://www.w3.org/2000/svg">
<path d="M3.465 34.5002C2.88939 34.4991 2.32398 34.3482 1.82437 34.0624C0.699375 33.4249 0 32.1874 0 30.8439V3.65642C0 2.30923 0.699375 1.07548 1.82437 0.437978C2.33588 0.144012 2.91695 -0.00716065 3.50687 0.00026066C4.09678 0.00768197 4.67387 0.173425 5.17781 0.480166L28.4137 14.3889C28.898 14.6926 29.2972 15.1142 29.5739 15.6144C29.8507 16.1145 29.9958 16.6767 29.9958 17.2483C29.9958 17.8199 29.8507 18.3821 29.5739 18.8822C29.2972 19.3824 28.898 19.804 28.4137 20.1077L5.17406 34.0202C4.65834 34.332 4.06764 34.4979 3.465 34.5002Z" fill="#FE3231"/>
</svg>
